<svg xmlns="http://www.w3.org/2000/svg" xmlns:xlink="http://www.w3.org/1999/xlink" id="processonSvg1000" viewBox="206.39999389648438 13.600006103515625 760.5 462.1999969482422" width="760.5" height="462.1999969482422"><defs id="ProcessOnDefs1001"><marker id="ProcessOnMarker1019" markerUnits="userSpaceOnUse" orient="auto" markerWidth="16.23606797749979" markerHeight="10.550836550532098" viewBox="-1.0 -1.3763819204711736 16.23606797749979 10.550836550532098" refX="-1.0" refY="3.8990363547948754"><path id="ProcessOnPath1020" d="M12.0 3.8990363547948754L0.0 7.798072709589751V0.0Z" stroke="#ff3333" stroke-width="2.0" fill="#ff3333" transform="matrix(1.0,0.0,0.0,1.0,0.0,0.0)"/></marker><marker id="ProcessOnMarker1023" markerUnits="userSpaceOnUse" orient="auto" markerWidth="16.23606797749979" markerHeight="10.550836550532098" viewBox="-1.0 -1.3763819204711736 16.23606797749979 10.550836550532098" refX="-1.0" refY="3.8990363547948754"><path id="ProcessOnPath1024" d="M12.0 3.8990363547948754L0.0 7.798072709589751V0.0Z" stroke="#00cc00" stroke-width="2.0" fill="#00cc00" transform="matrix(1.0,0.0,0.0,1.0,0.0,0.0)"/></marker><marker id="ProcessOnMarker1027" markerUnits="userSpaceOnUse" orient="auto" markerWidth="16.23606797749979" markerHeight="10.550836550532098" viewBox="-1.0 -1.3763819204711736 16.23606797749979 10.550836550532098" refX="-1.0" refY="3.8990363547948754"><path id="ProcessOnPath1028" d="M12.0 3.8990363547948754L0.0 7.798072709589751V0.0Z" stroke="#00cc00" stroke-width="2.0" fill="#00cc00" transform="matrix(1.0,0.0,0.0,1.0,0.0,0.0)"/></marker><marker id="ProcessOnMarker1041" markerUnits="userSpaceOnUse" orient="auto" markerWidth="16.23606797749979" markerHeight="10.550836550532098" viewBox="-1.0 -1.3763819204711736 16.23606797749979 10.550836550532098" refX="-1.0" refY="3.8990363547948754"><path id="ProcessOnPath1042" d="M12.0 3.8990363547948754L0.0 7.798072709589751V0.0Z" stroke="#00cc00" stroke-width="2.0" fill="#00cc00" transform="matrix(1.0,0.0,0.0,1.0,0.0,0.0)"/></marker><marker id="ProcessOnMarker1045" markerUnits="userSpaceOnUse" orient="auto" markerWidth="16.23606797749979" markerHeight="10.550836550532098" viewBox="-1.0 -1.3763819204711736 16.23606797749979 10.550836550532098" refX="-1.0" refY="3.8990363547948754"><path id="ProcessOnPath1046" d="M12.0 3.8990363547948754L0.0 7.798072709589751V0.0Z" stroke="#00cc00" stroke-width="2.0" fill="#00cc00" transform="matrix(1.0,0.0,0.0,1.0,0.0,0.0)"/></marker></defs><g id="ProcessOnG1002"><path id="ProcessOnPath1003" d="M206.39999389648438 13.600006103515625H966.8999938964844V475.8000030517578H206.39999389648438V13.600006103515625Z" fill="none"/><g id="ProcessOnG1004"><g id="ProcessOnG1005" transform="matrix(1.0,0.0,0.0,1.0,586.3999938964844,306.8000030517578)" opacity="1.0"><g id="ProcessOnG1007" transform="matrix(1.0,0.0,0.0,1.0,0.0,0.0)"> <g> <path fill="#F28A56" d="M22.412,9.099H0.707C0.266,9.099,0,8.833,0,8.481V0.618C0,0.267,0.266,0,0.707,0h21.705 c0.351,0,0.708,0.267,0.708,0.618v7.863C23.029,8.833,22.763,9.099,22.412,9.099z"/> <path fill="#F28A56" d="M48.265,9.099H26.646c-0.352,0-0.703-0.266-0.703-0.617V0.618C25.943,0.267,26.294,0,26.646,0h21.709 c0.352,0,0.702,0.267,0.702,0.618v7.863C49.057,8.833,48.706,9.099,48.265,9.099z"/> <path fill="#F28A56" d="M74.298,9.099h-21.71c-0.351,0-0.702-0.266-0.702-0.617V0.618C51.886,0.267,52.146,0,52.588,0h21.71 C74.739,0,75,0.267,75,0.618v7.863C75,8.833,74.739,9.099,74.298,9.099z"/> <path fill="#F28A56" d="M22.412,31.088H0.707C0.351,31.088,0,30.827,0,30.475v-7.863c0-0.352,0.266-0.618,0.707-0.618h21.705 c0.351,0,0.708,0.267,0.708,0.618v7.863C23.029,30.827,22.763,31.088,22.412,31.088z"/> <path fill="#F28A56" d="M48.265,31.088H26.646c-0.352,0-0.703-0.261-0.703-0.613v-7.863c0-0.352,0.261-0.618,0.703-0.618h21.709 c0.352,0,0.702,0.267,0.702,0.618v7.863C49.057,30.827,48.706,31.088,48.265,31.088z"/> <path fill="#F28A56" d="M74.298,31.088h-21.71c-0.351,0-0.702-0.261-0.702-0.613v-7.863c0-0.352,0.261-0.618,0.702-0.618h21.71 c0.351,0,0.702,0.267,0.702,0.618v7.863C75,30.827,74.739,31.088,74.298,31.088z"/> <path fill="#F28A56" d="M35.293,20.227H13.678c-0.355,0-0.706-0.267-0.706-0.618v-7.773c0-0.351,0.266-0.617,0.706-0.617h21.615 c0.356,0,0.707,0.267,0.707,0.617v7.863C36,19.96,35.649,20.227,35.293,20.227z"/> <path fill="#F28A56" d="M9.44,20.227H0v-9.099h9.44c0.355,0,0.707,0.266,0.707,0.617v7.863C10.147,19.96,9.796,20.227,9.44,20.227z "/> <path fill="#F28A56" d="M61.326,20.227H39.617c-0.352,0-0.703-0.267-0.703-0.618v-7.773c0-0.351,0.262-0.617,0.703-0.617h21.709 c0.352,0,0.702,0.267,0.702,0.617v7.863C62.028,19.96,61.678,20.227,61.326,20.227z"/> <path fill="#F28A56" d="M75,20.227H64.677c-0.351,0-0.702-0.267-0.702-0.618v-7.773c0-0.351,0.261-0.617,0.702-0.617H75V20.227z"/> <path fill="#F28A56" d="M22.412,53H0.707C0.266,53,0,52.729,0,52.378v-7.863c0-0.352,0.266-0.612,0.707-0.612h21.705 c0.351,0,0.708,0.261,0.708,0.612v7.863C23.029,52.639,22.763,53,22.412,53z"/> <path fill="#F28A56" d="M48.265,53H26.646c-0.352,0-0.703-0.271-0.703-0.622v-7.863c0-0.352,0.261-0.612,0.703-0.612h21.709 c0.352,0,0.702,0.261,0.702,0.612v7.863C49.057,52.639,48.706,53,48.265,53z"/> <path fill="#F28A56" d="M74.298,53h-21.71c-0.351,0-0.702-0.271-0.702-0.622v-7.863c0-0.352,0.261-0.612,0.702-0.612h21.71 c0.351,0,0.702,0.261,0.702,0.612v7.863C75,52.639,74.739,53,74.298,53z"/> <path fill="#F28A56" d="M35.293,42.135H13.678c-0.355,0-0.706-0.271-0.706-0.623v-7.943c0-0.359,0.266-0.623,0.706-0.623h21.615 c0.356,0,0.707,0.264,0.707,0.623v7.943C36,41.782,35.649,42.135,35.293,42.135z"/> <path fill="#F28A56" d="M9.44,42.135H0v-9.189h9.44c0.355,0,0.707,0.264,0.707,0.623v7.854C10.147,41.782,9.796,42.135,9.44,42.135 z"/> <path fill="#F28A56" d="M61.326,42.135H39.617c-0.352,0-0.703-0.271-0.703-0.623v-7.943c0-0.359,0.262-0.623,0.703-0.623h21.709 c0.352,0,0.702,0.264,0.702,0.623v7.943C62.028,41.782,61.678,42.135,61.326,42.135z"/> <path fill="#F28A56" d="M75,42.135H64.677c-0.351,0-0.702-0.271-0.702-0.623v-7.943c0-0.359,0.261-0.623,0.702-0.623H75V42.135z"/> <path pointer-events="none" fill="#F28A56" stroke="#FFFFFF" stroke-width="2" stroke-miterlimit="10" d="M31.688,49.157 c0.429-3.101,1.497-6.021,3.185-8.62c0.517-0.856,0.986-1.717,1.412-2.622c0.488-0.85,0.62-1.884,0.337-2.824 c0.858,0.819,1.313,1.986,1.274,3.163c-0.325,2.412-0.033,4.842,0.849,7.093c0.881,1.702,2.212,3.134,3.872,4.153 c3.591-0.792,6.837-2.713,9.298-5.449c2.388-2.75,3.185-6.537,2.121-10.03c-1.196-3.45-2.803-6.743-4.788-9.826 c-1.157-1.68-1.787-3.677-1.832-5.714c0.235-0.888,0.823-1.651,1.613-2.122c-1.187-0.022-2.331,0.381-3.244,1.128 c-1.862,1.866-2.97,4.364-3.103,7.003c-0.717-2.023-0.829-4.218-0.284-6.29c0.694-2.785,0.363-5.707-0.913-8.264 c-0.862-1.349-1.912-2.562-3.104-3.617c-0.983-0.78-1.812-1.734-2.461-2.82c-0.134,1.354-0.019,2.724,0.363,4.032 c0.486,2.087,0.187,4.278-0.858,6.143c-0.715,1.179-1.482,2.307-2.328,3.396c-1.19,1.779-1.945,3.802-2.255,5.94 c-0.3-2.453-1.007-4.81-2.112-7.01c-1.032-2.112-2.584-3.933-4.51-5.297c0.83,2.062,1.166,4.286,0.989,6.509 c-0.261,1.886-0.741,3.728-1.412,5.503c-1.684,3.482-2.781,7.191-3.252,11.024c-0.312,3.785,0.919,7.52,3.386,10.387 C25.948,46.552,28.664,48.308,31.688,49.157z"/> </g>  </g></g><g id="ProcessOnG1008" transform="matrix(1.0,0.0,0.0,1.0,828.3999938964844,300.8000030517578)" opacity="1.0"><g id="ProcessOnG1010" transform="matrix(1.0,0.0,0.0,1.0,0.0,0.0)"> <g> <g> <path fill="#1B2E3D" d="M75.757,65H49.973c-0.711,0-1.242-0.592-1.242-1.24V1.241C48.73,0.532,49.322,0,49.973,0h25.784 C76.467,0,77,0.591,77,1.241V63.7C77,64.408,76.407,65,75.757,65z"/> <path fill="#D8DDE1" d="M74.279,62.104H51.154c-0.709,0-1.24-0.59-1.24-1.24V2.482c0-0.709,0.592-1.241,1.24-1.241h23.125 c0.709,0,1.24,0.591,1.24,1.241v58.381C75.52,61.574,74.93,62.104,74.279,62.104z"/> <path fill="#36485C" d="M72.801,6.086h-19.93c-0.355,0-0.594-0.296-0.594-0.591V4.787c0-0.354,0.298-0.591,0.594-0.591h19.93 c0.355,0,0.592,0.295,0.592,0.591v0.709C73.393,5.791,73.156,6.086,72.801,6.086z"/> <path fill="#36485C" d="M72.918,14.595h-19.93c-0.355,0-0.592-0.294-0.592-0.59v-2.364c0-0.354,0.297-0.591,0.592-0.591h19.93 c0.355,0,0.592,0.296,0.592,0.591v2.364C73.51,14.301,73.271,14.595,72.918,14.595z"/> <g> <rect x="48.671" y="46.092" fill="#495A5E" width="28.329" height="0.59"/> </g> <g> <rect x="48.671" y="8.272" fill="#495A5E" width="28.329" height="0.591"/> </g> <ellipse fill="#2A6ED1" cx="62.982" cy="34.154" rx="1.539" ry="1.595"/> </g> <path fill="#1B2E3D" d="M31.048,59.386h-4.022c-0.65,0-1.183-0.53-1.183-1.182V51.23c0-0.647,0.533-1.182,1.183-1.182h4.022 c0.65,0,1.182,0.533,1.182,1.182v6.974C32.23,58.855,31.698,59.386,31.048,59.386z"/> <path fill="#324556" d="M57.426,53.771H0.591C0.237,53.771,0,53.477,0,53.182V17.728c0-0.355,0.295-0.591,0.591-0.591h56.834 c0.353,0,0.591,0.295,0.591,0.591v35.454C58.016,53.536,57.777,53.771,57.426,53.771z"/> <path fill="#FFFFFF" d="M56.359,52.59H1.715c-0.355,0-0.592-0.296-0.592-0.59V18.968c0-0.354,0.296-0.591,0.592-0.591h54.645 c0.354,0,0.591,0.295,0.591,0.591V52C56.95,52.294,56.654,52.59,56.359,52.59z"/> <path fill="#324556" d="M42.462,59.979H15.554c-0.237,0-0.414-0.18-0.414-0.414v-0.828c0-0.235,0.177-0.412,0.414-0.412h26.908 c0.237,0,0.413,0.177,0.413,0.412v0.826C42.875,59.799,42.699,59.979,42.462,59.979z"/> </g>  </g></g><g id="ProcessOnG1011" transform="matrix(1.0,0.0,0.0,1.0,288.3999938964844,180.3000030517578)" opacity="1.0"><g id="ProcessOnG1013" transform="matrix(1.0,0.0,0.0,1.0,0.0,0.0)"> <g> <path fill="#1E3947" d="M33.279,80H2.716C1.197,80,0,78.795,0,77.283V2.718C0,1.197,1.197,0,2.716,0h30.563 C34.793,0,36,1.197,36,2.718v74.565C36,78.705,34.793,80,33.279,80z"/> <rect x="0.081" y="6.398" fill="#DCE9F7" width="35.919" height="0.884"/> <rect x="0.081" y="69.518" fill="#DCE9F7" width="35.918" height="0.884"/> <rect y="51.126" fill="#1A6684" width="36" height="0.481"/> <g> <rect x="5.2" y="11.68" fill="#236A8E" width="25.751" height="3.119"/> <rect x="5.2" y="15.608" fill="#236A8E" width="25.751" height="3.114"/> <rect x="5.833" y="12.877" fill="#DCE9F7" width="4.648" height="0.966"/> <rect x="5.833" y="16.72" fill="#DCE9F7" width="4.648" height="0.953"/> </g> <g> <rect x="5.2" y="20.642" fill="#236A8E" width="25.751" height="3.121"/> <rect x="5.2" y="24.557" fill="#236A8E" width="25.751" height="3.116"/> <rect x="5.833" y="21.841" fill="#DCE9F7" width="4.648" height="0.956"/> <rect x="5.833" y="25.687" fill="#DCE9F7" width="4.648" height="0.953"/> </g> <g> <rect x="5.2" y="31.277" fill="#236A8E" width="25.751" height="3.114"/> <rect x="5.2" y="35.201" fill="#236A8E" width="25.751" height="3.119"/> <rect x="5.833" y="32.483" fill="#DCE9F7" width="4.648" height="0.957"/> <rect x="5.833" y="36.318" fill="#DCE9F7" width="4.648" height="0.964"/> </g> <path opacity="0.62" fill="#FF466A" enable-background="new " d="M31.675,72.958c0.734,0,1.358,0.604,1.358,1.367 c0,0.744-0.624,1.349-1.358,1.349c-0.738,0-1.363-0.604-1.363-1.349C30.312,73.563,30.937,72.958,31.675,72.958z"/> <path opacity="0.62" fill="#43D190" enable-background="new " d="M26.629,72.958c0.759,0,1.364,0.604,1.364,1.367 c0,0.744-0.605,1.349-1.364,1.349c-0.746,0-1.352-0.604-1.352-1.349C25.277,73.563,25.883,72.958,26.629,72.958z"/> <g> <rect x="2.716" y="52.233" fill="#041323" width="1.36" height="16.405"/> <rect x="4.959" y="52.233" fill="#041323" width="1.358" height="16.405"/> <rect x="7.122" y="52.233" fill="#041323" width="1.358" height="16.405"/> <rect x="9.353" y="52.233" fill="#041323" width="1.363" height="16.405"/> <rect x="11.517" y="52.233" fill="#041323" width="1.358" height="16.405"/> <rect x="13.76" y="52.233" fill="#041323" width="1.358" height="16.405"/> <rect x="15.911" y="52.233" fill="#041323" width="1.366" height="16.405"/> <rect x="18.156" y="52.233" fill="#041323" width="1.376" height="16.405"/> <rect x="20.38" y="52.233" fill="#041323" width="1.377" height="16.405"/> <rect x="22.562" y="52.233" fill="#041323" width="1.349" height="16.405"/> <rect x="24.795" y="52.233" fill="#041323" width="1.365" height="16.405"/> <rect x="26.941" y="52.233" fill="#041323" width="1.374" height="16.405"/> <rect x="29.2" y="52.233" fill="#041323" width="1.349" height="16.405"/> <rect x="31.434" y="52.233" fill="#041323" width="1.378" height="16.405"/> </g> </g>  </g></g><g id="ProcessOnG1014" transform="matrix(1.0,0.0,0.0,1.0,605.8999938964844,76.80000305175781)" opacity="1.0"><g id="ProcessOnG1016" transform="matrix(1.0,0.0,0.0,1.0,0.0,0.0)"> <g> <path fill="#1E3947" d="M33.279,80H2.716C1.197,80,0,78.795,0,77.283V2.718C0,1.197,1.197,0,2.716,0h30.563 C34.793,0,36,1.197,36,2.718v74.565C36,78.705,34.793,80,33.279,80z"/> <rect x="0.081" y="6.398" fill="#DCE9F7" width="35.919" height="0.884"/> <rect x="0.081" y="69.518" fill="#DCE9F7" width="35.918" height="0.884"/> <rect y="51.126" fill="#1A6684" width="36" height="0.481"/> <g> <rect x="5.2" y="11.68" fill="#236A8E" width="25.751" height="3.119"/> <rect x="5.2" y="15.608" fill="#236A8E" width="25.751" height="3.114"/> <rect x="5.833" y="12.877" fill="#DCE9F7" width="4.648" height="0.966"/> <rect x="5.833" y="16.72" fill="#DCE9F7" width="4.648" height="0.953"/> </g> <g> <rect x="5.2" y="20.642" fill="#236A8E" width="25.751" height="3.121"/> <rect x="5.2" y="24.557" fill="#236A8E" width="25.751" height="3.116"/> <rect x="5.833" y="21.841" fill="#DCE9F7" width="4.648" height="0.956"/> <rect x="5.833" y="25.687" fill="#DCE9F7" width="4.648" height="0.953"/> </g> <g> <rect x="5.2" y="31.277" fill="#236A8E" width="25.751" height="3.114"/> <rect x="5.2" y="35.201" fill="#236A8E" width="25.751" height="3.119"/> <rect x="5.833" y="32.483" fill="#DCE9F7" width="4.648" height="0.957"/> <rect x="5.833" y="36.318" fill="#DCE9F7" width="4.648" height="0.964"/> </g> <path opacity="0.62" fill="#FF466A" enable-background="new " d="M31.675,72.958c0.734,0,1.358,0.604,1.358,1.367 c0,0.744-0.624,1.349-1.358,1.349c-0.738,0-1.363-0.604-1.363-1.349C30.312,73.563,30.937,72.958,31.675,72.958z"/> <path opacity="0.62" fill="#43D190" enable-background="new " d="M26.629,72.958c0.759,0,1.364,0.604,1.364,1.367 c0,0.744-0.605,1.349-1.364,1.349c-0.746,0-1.352-0.604-1.352-1.349C25.277,73.563,25.883,72.958,26.629,72.958z"/> <g> <rect x="2.716" y="52.233" fill="#041323" width="1.36" height="16.405"/> <rect x="4.959" y="52.233" fill="#041323" width="1.358" height="16.405"/> <rect x="7.122" y="52.233" fill="#041323" width="1.358" height="16.405"/> <rect x="9.353" y="52.233" fill="#041323" width="1.363" height="16.405"/> <rect x="11.517" y="52.233" fill="#041323" width="1.358" height="16.405"/> <rect x="13.76" y="52.233" fill="#041323" width="1.358" height="16.405"/> <rect x="15.911" y="52.233" fill="#041323" width="1.366" height="16.405"/> <rect x="18.156" y="52.233" fill="#041323" width="1.376" height="16.405"/> <rect x="20.38" y="52.233" fill="#041323" width="1.377" height="16.405"/> <rect x="22.562" y="52.233" fill="#041323" width="1.349" height="16.405"/> <rect x="24.795" y="52.233" fill="#041323" width="1.365" height="16.405"/> <rect x="26.941" y="52.233" fill="#041323" width="1.374" height="16.405"/> <rect x="29.2" y="52.233" fill="#041323" width="1.349" height="16.405"/> <rect x="31.434" y="52.233" fill="#041323" width="1.378" height="16.405"/> </g> </g>  </g></g><g id="ProcessOnG1017"><path id="ProcessOnPath1018" d="M586.3999938964844 333.3000030517578L455.3999938964844 333.3000030517578L455.3999938964844 220.3000030517578L339.63606187398415 220.3000030517578" stroke="#ff3333" stroke-width="2.0" stroke-dasharray="none" fill="none" marker-end="url(#ProcessOnMarker1019)"/></g><g id="ProcessOnG1021"><path id="ProcessOnPath1022" d="M828.3999938964844 333.3000030517578L744.8999938964844 333.3000030517578L744.8999938964844 333.3000030517578L676.6360618739842 333.3000030517578" stroke="#00cc00" stroke-width="2.0" stroke-dasharray="none" fill="none" marker-end="url(#ProcessOnMarker1023)"/></g><g id="ProcessOnG1025"><path id="ProcessOnPath1026" d="M605.8999938964844 116.80000305175781L306.3999938964844 116.80000305175781L306.3999938964844 165.063935074258" stroke="#00cc00" stroke-width="2.0" stroke-dasharray="none" fill="none" marker-end="url(#ProcessOnMarker1027)"/></g><g id="ProcessOnG1029" transform="matrix(1.0,0.0,0.0,1.0,478.3999938964844,272.8000030517578)" opacity="1.0"><g id="ProcessOnG1031" transform="matrix(1.6666666666666667,0.0,0.0,1.6666666666666667,0.0,0.0)"> <path fill="#E51C23" d="M12,2C6.48,2,2,6.48,2,12c0,5.52,4.48,10,10,10c5.52,0,10-4.48,10-10C22,6.48,17.52,2,12,2z M13,17h-2v-2h2 V17z M13,13h-2V7h2V13z"/>  </g></g><g id="ProcessOnG1032" transform="matrix(1.0,0.0,0.0,1.0,418.3999938964844,300.8000030517578)" opacity="1.0"><path id="ProcessOnPath1033" d="M0.0 0.0L160.0 0.0L160.0 40.0L0.0 40.0Z" stroke="none" stroke-width="0.0" stroke-dasharray="none" opacity="1.0" fill="none"/><g id="ProcessOnG1034" transform="matrix(1.0,0.0,0.0,1.0,0.0,11.875)"><text id="ProcessOnText1035" fill="#000000" font-size="13" x="79.0" y="13.325" font-family="微软雅黑" font-weight="normal" font-style="normal" text-decoration="none" family="微软雅黑" text-anchor="middle" size="13">BANNED</text></g></g><g id="ProcessOnG1036" transform="matrix(1.0,0.0,0.0,1.0,288.3999938964844,372.0)" opacity="1.0"><g id="ProcessOnG1038" transform="matrix(1.0,0.0,0.0,1.0,0.0,0.0)"> <g> <path fill="#1E3947" d="M33.279,80H2.716C1.197,80,0,78.795,0,77.283V2.718C0,1.197,1.197,0,2.716,0h30.563 C34.793,0,36,1.197,36,2.718v74.565C36,78.705,34.793,80,33.279,80z"/> <rect x="0.081" y="6.398" fill="#DCE9F7" width="35.919" height="0.884"/> <rect x="0.081" y="69.518" fill="#DCE9F7" width="35.918" height="0.884"/> <rect y="51.126" fill="#1A6684" width="36" height="0.481"/> <g> <rect x="5.2" y="11.68" fill="#236A8E" width="25.751" height="3.119"/> <rect x="5.2" y="15.608" fill="#236A8E" width="25.751" height="3.114"/> <rect x="5.833" y="12.877" fill="#DCE9F7" width="4.648" height="0.966"/> <rect x="5.833" y="16.72" fill="#DCE9F7" width="4.648" height="0.953"/> </g> <g> <rect x="5.2" y="20.642" fill="#236A8E" width="25.751" height="3.121"/> <rect x="5.2" y="24.557" fill="#236A8E" width="25.751" height="3.116"/> <rect x="5.833" y="21.841" fill="#DCE9F7" width="4.648" height="0.956"/> <rect x="5.833" y="25.687" fill="#DCE9F7" width="4.648" height="0.953"/> </g> <g> <rect x="5.2" y="31.277" fill="#236A8E" width="25.751" height="3.114"/> <rect x="5.2" y="35.201" fill="#236A8E" width="25.751" height="3.119"/> <rect x="5.833" y="32.483" fill="#DCE9F7" width="4.648" height="0.957"/> <rect x="5.833" y="36.318" fill="#DCE9F7" width="4.648" height="0.964"/> </g> <path opacity="0.62" fill="#FF466A" enable-background="new " d="M31.675,72.958c0.734,0,1.358,0.604,1.358,1.367 c0,0.744-0.624,1.349-1.358,1.349c-0.738,0-1.363-0.604-1.363-1.349C30.312,73.563,30.937,72.958,31.675,72.958z"/> <path opacity="0.62" fill="#43D190" enable-background="new " d="M26.629,72.958c0.759,0,1.364,0.604,1.364,1.367 c0,0.744-0.605,1.349-1.364,1.349c-0.746,0-1.352-0.604-1.352-1.349C25.277,73.563,25.883,72.958,26.629,72.958z"/> <g> <rect x="2.716" y="52.233" fill="#041323" width="1.36" height="16.405"/> <rect x="4.959" y="52.233" fill="#041323" width="1.358" height="16.405"/> <rect x="7.122" y="52.233" fill="#041323" width="1.358" height="16.405"/> <rect x="9.353" y="52.233" fill="#041323" width="1.363" height="16.405"/> <rect x="11.517" y="52.233" fill="#041323" width="1.358" height="16.405"/> <rect x="13.76" y="52.233" fill="#041323" width="1.358" height="16.405"/> <rect x="15.911" y="52.233" fill="#041323" width="1.366" height="16.405"/> <rect x="18.156" y="52.233" fill="#041323" width="1.376" height="16.405"/> <rect x="20.38" y="52.233" fill="#041323" width="1.377" height="16.405"/> <rect x="22.562" y="52.233" fill="#041323" width="1.349" height="16.405"/> <rect x="24.795" y="52.233" fill="#041323" width="1.365" height="16.405"/> <rect x="26.941" y="52.233" fill="#041323" width="1.374" height="16.405"/> <rect x="29.2" y="52.233" fill="#041323" width="1.349" height="16.405"/> <rect x="31.434" y="52.233" fill="#041323" width="1.378" height="16.405"/> </g> </g>  </g></g><g id="ProcessOnG1039"><path id="ProcessOnPath1040" d="M623.8999938964844 359.8000030517578L623.8999938964844 412.0L339.63606187398415 412.0" stroke="#00cc00" stroke-width="2.0" stroke-dasharray="none" fill="none" marker-end="url(#ProcessOnMarker1041)"/></g><g id="ProcessOnG1043"><path id="ProcessOnPath1044" d="M623.8999938964844 306.8000030517578L623.8999938964844 231.8000030517578L623.8999938964844 231.8000030517578L623.8999938964844 172.0360710292576" stroke="#00cc00" stroke-width="2.0" stroke-dasharray="none" fill="none" marker-end="url(#ProcessOnMarker1045)"/></g><g id="ProcessOnG1047" transform="matrix(1.0,0.0,0.0,1.0,668.3999938964844,293.6000061035156)" opacity="1.0"><path id="ProcessOnPath1048" d="M0.0 0.0L160.0 0.0L160.0 40.0L0.0 40.0Z" stroke="none" stroke-width="0.0" stroke-dasharray="none" opacity="1.0" fill="none"/><g id="ProcessOnG1049" transform="matrix(1.0,0.0,0.0,1.0,0.0,11.875)"><text id="ProcessOnText1050" fill="#000000" font-size="13" x="79.0" y="13.325" font-family="微软雅黑" font-weight="normal" font-style="normal" text-decoration="none" family="微软雅黑" text-anchor="middle" size="13">UNICORN Protocol</text></g></g><g id="ProcessOnG1051" transform="matrix(6.123233995736766E-17,1.0,-1.0,6.123233995736766E-17,664.3999938964844,152.60000610351562)" opacity="1.0"><path id="ProcessOnPath1052" d="M0.0 0.0L160.0 0.0L160.0 40.0L0.0 40.0Z" stroke="none" stroke-width="0.0" stroke-dasharray="none" opacity="1.0" fill="none"/><g id="ProcessOnG1053" transform="matrix(1.0,0.0,0.0,1.0,0.0,11.875)"><text id="ProcessOnText1054" fill="#000000" font-size="13" x="79.0" y="13.325" font-family="微软雅黑" font-weight="normal" font-style="normal" text-decoration="none" family="微软雅黑" text-anchor="middle" size="13">UNICORN Protocol</text></g></g><g id="ProcessOnG1055" transform="matrix(1.0,0.0,0.0,1.0,333.3999938964844,415.8000030517578)" opacity="1.0"><path id="ProcessOnPath1056" d="M0.0 0.0L160.0 0.0L160.0 40.0L0.0 40.0Z" stroke="none" stroke-width="0.0" stroke-dasharray="none" opacity="1.0" fill="none"/><g id="ProcessOnG1057" transform="matrix(1.0,0.0,0.0,1.0,0.0,11.875)"><text id="ProcessOnText1058" fill="#000000" font-size="13" x="79.0" y="13.325" font-family="微软雅黑" font-weight="normal" font-style="normal" text-decoration="none" family="微软雅黑" text-anchor="middle" size="13">Another Server</text></g></g><g id="ProcessOnG1059" transform="matrix(1.0,0.0,0.0,1.0,226.39999389648438,266.8000030517578)" opacity="1.0"><path id="ProcessOnPath1060" d="M0.0 0.0L160.0 0.0L160.0 40.0L0.0 40.0Z" stroke="none" stroke-width="0.0" stroke-dasharray="none" opacity="1.0" fill="none"/><g id="ProcessOnG1061" transform="matrix(1.0,0.0,0.0,1.0,0.0,11.875)"><text id="ProcessOnText1062" fill="#000000" font-size="13" x="79.0" y="13.325" font-family="微软雅黑" font-weight="normal" font-style="normal" text-decoration="none" family="微软雅黑" text-anchor="middle" size="13">Banned Server</text></g></g><g id="ProcessOnG1063" transform="matrix(1.0,0.0,0.0,1.0,543.8999938964844,33.600006103515625)" opacity="1.0"><path id="ProcessOnPath1064" d="M0.0 0.0L160.0 0.0L160.0 40.0L0.0 40.0Z" stroke="none" stroke-width="0.0" stroke-dasharray="none" opacity="1.0" fill="none"/><g id="ProcessOnG1065" transform="matrix(1.0,0.0,0.0,1.0,0.0,11.875)"><text id="ProcessOnText1066" fill="#000000" font-size="13" x="79.0" y="13.325" font-family="微软雅黑" font-weight="normal" font-style="normal" text-decoration="none" family="微软雅黑" text-anchor="middle" size="13">Proxy Server</text></g></g><g id="ProcessOnG1067" transform="matrix(1.0,0.0,0.0,1.0,383.8999938964844,73.60000610351562)" opacity="1.0"><path id="ProcessOnPath1068" d="M0.0 0.0L160.0 0.0L160.0 40.0L0.0 40.0Z" stroke="none" stroke-width="0.0" stroke-dasharray="none" opacity="1.0" fill="none"/><g id="ProcessOnG1069" transform="matrix(1.0,0.0,0.0,1.0,0.0,11.875)"><text id="ProcessOnText1070" fill="#000000" font-size="13" x="79.0" y="13.325" font-family="微软雅黑" font-weight="normal" font-style="normal" text-decoration="none" family="微软雅黑" text-anchor="middle" size="13">Raw Protocol</text></g></g><g id="ProcessOnG1071" transform="matrix(1.0,0.0,0.0,1.0,786.8999938964844,378.8000030517578)" opacity="1.0"><path id="ProcessOnPath1072" d="M0.0 0.0L160.0 0.0L160.0 40.0L0.0 40.0Z" stroke="none" stroke-width="0.0" stroke-dasharray="none" opacity="1.0" fill="none"/><g id="ProcessOnG1073" transform="matrix(1.0,0.0,0.0,1.0,0.0,11.875)"><text id="ProcessOnText1074" fill="#000000" font-size="13" x="79.0" y="13.325" font-family="微软雅黑" font-weight="normal" font-style="normal" text-decoration="none" family="微软雅黑" text-anchor="middle" size="13">Client</text></g></g></g></g></svg>