<?xml version="1.0" standalone="no"?><!DOCTYPE svg PUBLIC "-//W3C//DTD SVG 1.1//EN" "http://www.w3.org/Graphics/SVG/1.1/DTD/svg11.dtd"><svg t="1512566158320" class="icon" style="" viewBox="0 0 1024 1024" version="1.1" xmlns="http://www.w3.org/2000/svg" p-id="1370" xmlns:xlink="http://www.w3.org/1999/xlink" width="200" height="200"><defs><style type="text/css"></style></defs><path d="M988 40L609.774 286.714c32.988 29.216 65.486 45.14 89.926 73.94zM596.692 187.188c-25.16 0.872-53.18 9.968-76.094 23.54-15.28 9.046-28.23 19.94-36.608 30.284-8.38 10.346-11.58 19.664-11.296 25.336l0.566 11.46-10.15 5.352C267.426 386.32 161.89 501.454 36 621.188V988h332.094c12.29-30.848 25.448-67.796 30.172-95.07 3.456-19.954-5.566-43.614-16.46-70.488-10.888-26.872-23.7-57.412-15.26-90.846 6.98-27.654 28.75-51.504 48.192-71.312 8.9-9.068 17.42-16.926 24.15-22.89-13.116-17.154-28.13-40.63-33.02-69.788l35.5-5.956c5.36 31.952 30.406 57.066 45.6 78.48l-0.646 0.46c21.08 29.268 37.784 56.79 61.44 75.092 26.716 20.674 62.968 32.78 133.052 22.98l13.316-1.864 5.564 12.248c13.92 30.644 28.744 47.78 42.03 56.846 13.286 9.07 25.26 10.92 37.384 9.58 24.25-2.68 48.58-21.948 55.52-28.528 8.26-7.84 19.314-18.952 26.64-32.248 6.694-12.152 10.146-25.374 6.96-41.488-85.36-75.124-139.184-217.5-180.512-305.2-18.49-39.24-71.572-68.984-105.934-95.9-4.854-2.8-5.35-5.164-6.48-10.308-8.43-38.334 6.376-80.514 21.948-114.596-0.192 0.004-0.372-0.02-0.56-0.012zM118.704 273.1c35.726 9.85 75.55 19.33 114.812 29.63 29.606 7.766 58.52 15.87 84.812 25.532 35.828-24.356 74.814-48.246 118.144-71.54-103.24-26.6-219.856-6.296-317.768 16.38z m57.476 52.252c-46.004 8.266-91.948 20.508-134.294 33.324 36.266 7.626 76.596 14.628 116.414 22.484 23.548 4.646 46.674 9.532 68.512 15.286a1372.95 1372.95 0 0 1 54.806-42.3c-18.088-5.864-37.42-11.396-57.24-16.596-15.904-4.172-32.086-8.196-48.2-12.2zM94.88 405.88c-19.75 4.192-39.456 9.164-58.88 14.58v36.08a4502.33 4502.33 0 0 1 40.344 6.292c21.01 3.4 41.694 6.996 61.468 11.25 17.672-16.37 35.774-32.644 54.536-48.794-13.28-3.12-27.04-6.048-41.016-8.806-18.64-3.676-37.62-7.132-56.454-10.6zM608 448c17.674 0 32 14.326 32 32s-14.326 32-32 32-32-14.326-32-32 14.326-32 32-32zM36 493.024v53.16c8.32 0.39 16.56 0.85 24.684 1.42 14.88-14.4 29.756-28.768 44.774-43.076a1209.494 1209.494 0 0 0-34.866-6.156A3003.34 3003.34 0 0 0 36 493.024z" fill="#515151" p-id="1371"></path></svg>